<?xml version="1.0" encoding="utf-8"?>
<!-- Generator: Adobe Illustrator 25.2.3, SVG Export Plug-In . SVG Version: 6.00 Build 0)  -->
<svg version="1.1" id="Layer_1" xmlns="http://www.w3.org/2000/svg" xmlns:xlink="http://www.w3.org/1999/xlink" x="0px" y="0px"
	 viewBox="0 0 64 64" style="enable-background:new 0 0 64 64;" xml:space="preserve">
<style type="text/css">
	.st0{fill:url(#SVGID_1_);}
	.st1{fill:url(#SVGID_2_);}
</style>
<g>
	
		<linearGradient id="SVGID_1_" gradientUnits="userSpaceOnUse" x1="12.9766" y1="38.7188" x2="53.1622" y2="38.7188" gradientTransform="matrix(1 0 0 -1 0 66)">
		<stop  offset="0" style="stop-color:#64FFDA"/>
		<stop  offset="1" style="stop-color:#536DFE"/>
	</linearGradient>
	<path class="st0" d="M33.6,10.9l13.9,23.4H27.1c-0.6,0-1.2,0.3-1.5,0.9l-0.9,1.6c-0.2,0.3,0,0.7,0.4,0.7h23.2c0.7,0,1.4,0.4,1.7,1
		l3.2,5.4H13l8.4-14.1c0.7-1.1,1.9-1.9,3.3-1.9h10.7c0.5,0,0.7-0.5,0.5-0.9L30,17.2c-0.3-0.6-0.3-1.3,0-1.8l2.6-4.4
		C32.9,10.6,33.4,10.6,33.6,10.9z"/>
	
		<linearGradient id="SVGID_2_" gradientUnits="userSpaceOnUse" x1="3.3244" y1="59.2849" x2="52.7436" y2="15.7092" gradientTransform="matrix(1 0 0 -1 0 66)">
		<stop  offset="0" style="stop-color:#64FFDA"/>
		<stop  offset="1" style="stop-color:#536DFE"/>
	</linearGradient>
	<path class="st1" d="M32,0C14.3,0,0,14.3,0,32s14.3,32,32,32s32-14.3,32-32S49.7,0,32,0z M32,60.8C16.1,60.8,3.2,47.9,3.2,32
		S16.1,3.2,32,3.2S60.8,16.1,60.8,32S47.9,60.8,32,60.8z"/>
</g>
</svg>
