<?xml version="1.0" encoding="utf-8"?>
<!-- Generator: Adobe Illustrator 28.1.0, SVG Export Plug-In . SVG Version: 6.00 Build 0)  -->
<svg version="1.1" id="Layer_1" xmlns="http://www.w3.org/2000/svg" xmlns:xlink="http://www.w3.org/1999/xlink" x="0px" y="0px"
	 viewBox="0 0 146.62 146.62" style="enable-background:new 0 0 146.62 146.62;" xml:space="preserve">
<style type="text/css">
	.st0{fill:#FFFFFF;}
	.st1{fill:#505050;}
	.st2{fill:#F47820;}
</style>
<g>
	<rect x="910.14" y="-156.66" class="st0" width="500.44" height="418.67"/>
	<g>
		<path d="M993.45,153.73v-0.13c0-12.67,9.55-23.05,23.24-23.05c8.4,0,13.43,2.8,17.57,6.88l-6.24,7.19
			c-3.44-3.12-6.94-5.03-11.4-5.03c-7.51,0-12.92,6.24-12.92,13.88v0.13c0,7.64,5.28,14.01,12.92,14.01c5.09,0,8.21-2.04,11.71-5.22
			l6.24,6.3c-4.58,4.9-9.68,7.96-18.27,7.96C1003.19,176.65,993.45,166.53,993.45,153.73z"/>
		<path d="M1039.15,153.73v-0.13c0-12.67,10-23.05,23.75-23.05c13.75,0,23.62,10.25,23.62,22.92v0.13c0,12.67-10,23.05-23.75,23.05
			C1049.02,176.65,1039.15,166.4,1039.15,153.73z M1076.27,153.73v-0.13c0-7.64-5.6-14.01-13.5-14.01
			c-7.89,0-13.37,6.24-13.37,13.88v0.13c0,7.64,5.6,14.01,13.5,14.01C1070.79,167.61,1076.27,161.37,1076.27,153.73z"/>
		<path d="M1095.24,131.32h10.57l11.71,18.84l11.71-18.84h10.57v44.56h-9.74v-29.09l-12.54,19.04h-0.25l-12.41-18.84v28.9h-9.61
			V131.32z"/>
		<path d="M1150.49,131.32h18.21c10.63,0,17.06,6.3,17.06,15.41v0.13c0,10.31-8.02,15.66-18.02,15.66h-7.45v13.37h-9.8V131.32z
			 M1168.06,153.8c4.9,0,7.77-2.93,7.77-6.75v-0.13c0-4.39-3.06-6.75-7.96-6.75h-7.58v13.62H1168.06z"/>
		<path d="M1203.84,131.01h9.04l19.1,44.88h-10.25l-4.07-10h-18.84l-4.07,10h-10L1203.84,131.01z M1214.15,157.23l-5.92-14.45
			l-5.92,14.45H1214.15z"/>
		<path d="M1238.85,131.32h9.04l20.88,27.44v-27.44h9.68v44.56h-8.34l-21.58-28.33v28.33h-9.68V131.32z"/>
		<path d="M1301.68,158.32l-17.12-26.99h11.46l10.63,17.89l10.82-17.89h11.14l-17.12,26.8v17.76h-9.8V158.32z"/>
	</g>
	<g>
		<path class="st1" d="M993.49,195.41h6.34c1.7,0,3.04,0.49,3.89,1.32c0.62,0.64,0.96,1.43,0.96,2.38v0.04
			c0,1.94-1.19,2.94-2.36,3.45c1.77,0.53,3.19,1.55,3.19,3.6v0.04c0,2.55-2.15,4.07-5.41,4.07h-6.62V195.41z M999.55,202.05
			c2.02,0,3.43-0.91,3.43-2.66v-0.04c0-1.47-1.17-2.43-3.3-2.43h-4.53v5.13H999.55z M1000.15,208.8c2.26,0,3.66-1,3.66-2.66v-0.04
			c0-1.62-1.36-2.55-3.96-2.55h-4.7v5.26H1000.15z"/>
		<path class="st1" d="M1017.13,204.07v-8.66h1.68v8.56c0,3.21,1.7,5.02,4.55,5.02c2.75,0,4.49-1.66,4.49-4.92v-8.66h1.68v8.53
			c0,4.34-2.49,6.6-6.21,6.6C1019.64,210.54,1017.13,208.29,1017.13,204.07z"/>
		<path class="st1" d="M1041.06,208.14l1.04-1.23c1.55,1.4,3.04,2.11,5.11,2.11c2,0,3.32-1.06,3.32-2.53v-0.04
			c0-1.38-0.75-2.17-3.87-2.83c-3.43-0.75-5-1.85-5-4.3v-0.04c0-2.34,2.06-4.06,4.89-4.06c2.17,0,3.72,0.62,5.24,1.83l-0.98,1.3
			c-1.38-1.13-2.77-1.62-4.3-1.62c-1.94,0-3.17,1.06-3.17,2.41v0.04c0,1.4,0.77,2.19,4.04,2.89c3.32,0.72,4.85,1.94,4.85,4.21v0.04
			c0,2.55-2.13,4.21-5.09,4.21C1044.78,210.52,1042.84,209.73,1041.06,208.14z"/>
		<path class="st1" d="M1064.32,195.41h1.68v14.9h-1.68V195.41z"/>
		<path class="st1" d="M1078.88,195.41h1.57l9.39,11.94v-11.94h1.64v14.9h-1.34l-9.62-12.22v12.22h-1.64V195.41z"/>
		<path class="st1" d="M1104.2,195.41h10.77v1.53h-9.09v5.09h8.13v1.53h-8.13v5.21h9.19v1.53h-10.87V195.41z"/>
		<path class="st1" d="M1126,208.14l1.04-1.23c1.55,1.4,3.04,2.11,5.11,2.11c2,0,3.32-1.06,3.32-2.53v-0.04
			c0-1.38-0.75-2.17-3.87-2.83c-3.43-0.75-5-1.85-5-4.3v-0.04c0-2.34,2.06-4.06,4.89-4.06c2.17,0,3.72,0.62,5.24,1.83l-0.98,1.3
			c-1.38-1.13-2.77-1.62-4.3-1.62c-1.94,0-3.17,1.06-3.17,2.41v0.04c0,1.4,0.77,2.19,4.04,2.89c3.32,0.72,4.85,1.94,4.85,4.21v0.04
			c0,2.55-2.13,4.21-5.09,4.21C1129.72,210.52,1127.78,209.73,1126,208.14z"/>
		<path class="st1" d="M1147.92,208.14l1.04-1.23c1.55,1.4,3.04,2.11,5.11,2.11c2,0,3.32-1.06,3.32-2.53v-0.04
			c0-1.38-0.75-2.17-3.87-2.83c-3.43-0.75-5-1.85-5-4.3v-0.04c0-2.34,2.06-4.06,4.89-4.06c2.17,0,3.72,0.62,5.24,1.83l-0.98,1.3
			c-1.38-1.13-2.77-1.62-4.3-1.62c-1.94,0-3.17,1.06-3.17,2.41v0.04c0,1.4,0.77,2.19,4.04,2.89c3.32,0.72,4.85,1.94,4.85,4.21v0.04
			c0,2.55-2.13,4.21-5.09,4.21C1151.64,210.52,1149.71,209.73,1147.92,208.14z"/>
		<path class="st1" d="M1189.87,196.97h-5v-1.55h11.7v1.55h-5v13.34h-1.7V196.97z"/>
		<path class="st1" d="M1211.83,195.31h1.57l6.79,15h-1.81l-1.75-3.94h-8.11l-1.77,3.94h-1.72L1211.83,195.31z M1215.98,204.86
			l-3.38-7.6l-3.4,7.6H1215.98z"/>
		<path class="st1" d="M1230.11,202.9v-0.04c0-4.09,3-7.7,7.47-7.7c2.51,0,4.07,0.72,5.55,1.98l-1.09,1.28
			c-1.15-1-2.43-1.7-4.53-1.7c-3.3,0-5.66,2.79-5.66,6.11v0.04c0,3.55,2.28,6.19,5.9,6.19c1.7,0,3.28-0.66,4.3-1.49v-3.7h-4.53
			v-1.51h6.15v5.94c-1.38,1.23-3.47,2.28-5.98,2.28C1233.01,210.56,1230.11,207.16,1230.11,202.9z"/>
		<path class="st1" d="M1255.97,195.41h1.68v13.34h8.39v1.55h-10.07V195.41z"/>
		<path class="st1" d="M1277.81,195.41h1.68v14.9h-1.68V195.41z"/>
		<path class="st1" d="M1292.36,195.41h1.57l9.39,11.94v-11.94h1.64v14.9h-1.34l-9.62-12.22v12.22h-1.64V195.41z"/>
		<path class="st1" d="M1317.69,195.41h10.77v1.53h-9.09v5.09h8.13v1.53h-8.13v5.21h9.2v1.53h-10.88V195.41z"/>
	</g>
</g>
<g>
	<path class="st2" d="M83.34,137.06c0-0.37-0.02-65.21-0.02-65.21s38.78-36.7,39.09-36.95c0.44,0.52,7.37,10.65,9.53,15.78
		c2.29,5.43,3.79,11.07,4.53,16.91c0.5,3.97,0.56,7.96,0.3,11.96c-0.45,6.87-2.07,13.46-4.75,19.79c-2.45,5.79-5.78,11.03-9.87,15.8
		c-2.44,2.84-5.06,5.49-7.94,7.86c-4.23,3.47-8.78,6.44-13.73,8.79c-5.13,2.43-16.58,5.29-16.84,5.32
		C83.57,137.12,83.51,137.09,83.34,137.06z"/>
	<path class="st2" d="M113.9,26.38c-4.4,4.08-8.69,8.06-12.94,12.01c-1.21-0.75-2.34-1.47-3.48-2.15
		c-4.81-2.85-9.97-4.77-15.49-5.69c-4.92-0.82-9.86-0.84-14.8-0.11c-6.18,0.91-11.98,2.91-17.35,6.11
		c-6.15,3.66-11.27,8.43-15.28,14.38c-3.19,4.74-5.43,9.89-6.75,15.44c-1.09,4.57-1.4,9.2-1.04,13.89
		c0.52,6.81,2.43,13.2,5.75,19.17c0.03,0.05-8.11,7.94-12.33,11.87c-0.65-0.94-1.27-1.78-1.83-2.65c-3.87-5.94-6.53-12.4-8.04-19.32
		c-1.03-4.72-1.45-9.49-1.41-14.32c0.05-6.68,1.23-13.16,3.37-19.46c2.76-8.16,7.03-15.46,12.75-21.91
		c6.22-7.03,13.68-12.36,22.24-16.17c4.54-2.02,9.27-3.47,14.14-4.4c1.94-0.37,10.82-1.19,13.3-1.13c3.03,0.08,6.04,0.35,9.05,0.81
		c5.71,0.88,11.16,2.58,16.4,4.98c4.39,2.01,8.44,4.58,12.28,7.5C112.88,25.59,113.33,25.94,113.9,26.38z"/>
	<path class="st2" d="M74.72,137.87l-10.18-0.2L64.52,88.7c0,0,10.17-9.62,10.19-9.61C74.74,79.1,74.72,137.87,74.72,137.87z"/>
	<polygon class="st2" points="55.67,96.64 55.67,135.9 45.42,132.08 45.55,106.19 	"/>
	<polygon class="st2" points="36.06,126.92 28.77,121.22 36.27,114.24 	"/>
</g>
</svg>
