<?xml version="1.0" encoding="UTF-8"?>
<svg xmlns="http://www.w3.org/2000/svg" xmlns:xlink="http://www.w3.org/1999/xlink" width="32px" height="32px" viewBox="0 0 32 32" version="1.1">
<defs>
<linearGradient id="linear0" gradientUnits="userSpaceOnUse" x1="101.384903" y1="213.136902" x2="415.325806" y2="213.136902" gradientTransform="matrix(0.064,0,0,0.064,0,0)">
<stop offset="0" style="stop-color:rgb(39.215686%,100%,85.490196%);stop-opacity:1;"/>
<stop offset="1" style="stop-color:rgb(32.54902%,42.745098%,99.607843%);stop-opacity:1;"/>
</linearGradient>
<linearGradient id="linear1" gradientUnits="userSpaceOnUse" x1="25.9722" y1="52.462002" x2="412.059204" y2="392.89679" gradientTransform="matrix(0.064,0,0,0.064,0,0)">
<stop offset="0" style="stop-color:rgb(39.215686%,100%,85.490196%);stop-opacity:1;"/>
<stop offset="1" style="stop-color:rgb(32.54902%,42.745098%,99.607843%);stop-opacity:1;"/>
</linearGradient>
</defs>
<g id="surface1">
<path style=" stroke:none;fill-rule:nonzero;fill:url(#linear0);" d="M 16.777344 5.472656 L 23.738281 17.164062 L 13.5625 17.164062 C 13.246094 17.164062 12.957031 17.328125 12.796875 17.597656 L 12.320312 18.390625 C 12.226562 18.546875 12.339844 18.75 12.523438 18.75 L 24.113281 18.75 C 24.46875 18.75 24.792969 18.933594 24.976562 19.238281 L 26.582031 21.933594 L 6.488281 21.933594 L 10.691406 14.902344 C 11.035156 14.328125 11.65625 13.976562 12.328125 13.976562 L 17.695312 13.976562 C 17.925781 13.976562 18.066406 13.726562 17.949219 13.527344 L 15.007812 8.59375 C 14.84375 8.3125 14.84375 7.964844 15.011719 7.6875 L 16.332031 5.472656 C 16.433594 5.304688 16.679688 5.304688 16.777344 5.472656 Z M 16.777344 5.472656 "/>
<path style=" stroke:none;fill-rule:nonzero;fill:url(#linear1);" d="M 16 0 C 7.164062 0 0 7.164062 0 16 C 0 24.835938 7.164062 32 16 32 C 24.835938 32 32 24.835938 32 16 C 32 7.164062 24.835938 0 16 0 Z M 16 30.398438 C 8.046875 30.398438 1.601562 23.953125 1.601562 16 C 1.601562 8.046875 8.046875 1.601562 16 1.601562 C 23.953125 1.601562 30.398438 8.046875 30.398438 16 C 30.398438 23.953125 23.953125 30.398438 16 30.398438 Z M 16 30.398438 "/>
</g>
</svg>
