<?xml version="1.0" encoding="utf-8"?>
<!-- Generator: Adobe Illustrator 25.2.3, SVG Export Plug-In . SVG Version: 6.00 Build 0)  -->
<svg version="1.1" id="katman_1" xmlns="http://www.w3.org/2000/svg" xmlns:xlink="http://www.w3.org/1999/xlink" x="0px" y="0px"
	 viewBox="0 0 450 90" style="enable-background:new 0 0 450 90;" xml:space="preserve">
<style type="text/css">
	.st0{fill:#F3BA2F;}
</style>
<g transform="matrix(.710844 0 0 .710844 55.0018 155)">
	<path class="st0" d="M-38.6-144.6l24.6,24.6l24.6-24.6l14.3,14.3l0,0l-38.9,38.9L-53-130.3l0,0L-38.6-144.6z M0.5-154.8L0.5-154.8
		L0.5-154.8l-14.5,14.5l-14.5-14.5l0,0l2.6-2.6l1.2-1.2l10.7-10.7L0.5-154.8z M20.6-154.7l14.3-14.3l14.3,14.3l-14.3,14.3
		L20.6-154.7z M-77.4-154.7l14.3-14.3l14.3,14.3l-14.3,14.3L-77.4-154.7z M-38.6-164.9l24.6-24.6l24.6,24.6l14.3-14.3l-38.9-38.9
		L-53-179.2L-38.6-164.9z"/>
	<g transform="translate(.55)">
		<path class="st0" d="M71-187.4h31.1c7.7,0,13.6,2,17.5,6c3,3,4.7,7.1,4.6,11.3v0.2c0,1.7-0.2,3.4-0.7,5.1c-0.4,1.4-1.1,2.8-1.9,4
			c-0.8,1.2-1.7,2.2-2.8,3.1c-1,0.9-2.2,1.7-3.4,2.3c3.5,1.2,6.6,3.3,9.2,6c2.2,2.5,3.3,6,3.3,10.5v0.2c0.1,2.8-0.5,5.6-1.8,8.1
			c-1.2,2.3-2.9,4.3-5.1,5.8c-2.4,1.6-5.1,2.8-7.9,3.4c-3.4,0.8-6.8,1.2-10.3,1.2H71L71-187.4z M99-160.2c2.7,0.1,5.4-0.5,7.8-1.7
			c1.9-1.1,3-3.2,2.9-5.4v-0.2c0.1-2-0.8-4-2.5-5.1c-1.7-1.2-4.1-1.8-7.2-1.8H85.4v14.2H99z M102.9-133.2c2.7,0.1,5.4-0.5,7.7-1.8
			c1.9-1.2,2.9-3.3,2.8-5.5v-0.2c0.1-2.1-0.9-4.1-2.6-5.3c-1.7-1.3-4.5-2-8.3-2H85.4v14.8H102.9z"/>
		<path class="st0" d="M146.5-187.4h14.8v67.1h-14.8V-187.4z"/>
		<path class="st0" d="M183.6-187.4h13.6l31.5,41.3v-41.3h14.6v67.1h-12.6l-32.5-42.7v42.7h-14.6V-187.4z"/>
		<path class="st0" d="M288-187.9h13.6l28.8,67.6H315l-6.1-15.1h-28.4l-6.1,15.1h-15.1L288-187.9z M303.6-148.3l-8.9-21.8l-8.9,21.8
			H303.6z"/>
		<path class="st0" d="M346.4-187.4H360l31.5,41.3v-41.3H406v67.1h-12.6L361-162.9v42.7h-14.6V-187.4z"/>
		<path class="st0" d="M459.2-119.1c-4.7,0-9.4-0.9-13.7-2.7c-8.3-3.4-14.8-10-18.1-18.3c-1.7-4.3-2.6-8.9-2.6-13.5v-0.2
			c-0.1-9.1,3.4-17.9,9.8-24.5c3.1-3.2,6.9-5.8,11-7.5c4.5-1.9,9.3-2.8,14.2-2.7c2.9,0,5.8,0.2,8.6,0.8c2.4,0.5,4.8,1.2,7.1,2.1
			c2.1,0.9,4,2,5.8,3.3c1.8,1.3,3.5,2.7,5,4.2l-9.4,10.8c-2.4-2.2-5.1-4.1-8-5.6c-2.9-1.4-6-2.1-9.2-2c-5.3-0.1-10.4,2.2-14,6.1
			c-1.8,1.9-3.1,4.2-4,6.7c-1,2.6-1.5,5.3-1.4,8.1v0.2c0,2.8,0.5,5.5,1.4,8.1c0.9,2.5,2.3,4.7,4,6.7c3.5,4,8.7,6.3,14,6.2
			c3.4,0.1,6.7-0.6,9.7-2.1c2.9-1.6,5.5-3.5,7.9-5.8l9.4,9.5c-1.7,1.8-3.5,3.5-5.4,5c-1.9,1.5-3.9,2.8-6.1,3.8
			c-2.3,1.1-4.7,1.9-7.2,2.4C465.1-119.3,462.1-119,459.2-119.1z"/>
		<path class="st0" d="M504.1-187.4h50.5v13.1h-36v13.6h31.7v13.1h-31.7v14.1h36.5v13.1h-51L504.1-187.4z"/>
	</g>
</g>
</svg>
