<?xml version="1.0" encoding="utf-8"?>
<!-- Generator: Adobe Illustrator 25.2.3, SVG Export Plug-In . SVG Version: 6.00 Build 0)  -->
<svg version="1.1" id="Layer_1" xmlns="http://www.w3.org/2000/svg" xmlns:xlink="http://www.w3.org/1999/xlink" x="0px" y="0px"
	 viewBox="0 0 123.4 34" style="enable-background:new 0 0 123.4 34;" xml:space="preserve">
<style type="text/css">
	.st0{fill:#FFFFFF;}
	.st1{fill:#2354E6;}
	.st2{fill:#17E6A1;}
</style>
<path class="st0" d="M74.7,10.1h-3.1v3.4h-1.9v2.9h1.9v7.7c0,0.7,0.1,1.3,0.3,2c0.2,0.5,0.5,0.9,0.8,1.2c0.4,0.3,0.8,0.6,1.3,0.7
	c1.1,0.3,2.2,0.3,3.3,0c0.4-0.1,0.8-0.3,1.2-0.5v-2.4c-0.6,0.2-1.2,0.4-1.8,0.4c-0.5,0.1-1.1-0.1-1.4-0.5c-0.4-0.3-0.5-0.8-0.5-1.5
	v-7.2h3.8v-2.9h-3.8V10.1z M64.9,14.5c-3.4-2.5-8.1-1.7-10.6,1.6c-2.5,3.4-1.7,8.1,1.6,10.6c2.7,2,6.3,2,9,0v1.1H68V13.5h-3.1V14.5z
	 M60.4,25.1c-2.5,0-4.5-2-4.5-4.5c0-2.5,2-4.5,4.5-4.5c2.5,0,4.5,2,4.5,4.5c0,0,0,0,0,0C64.9,23.1,62.9,25.1,60.4,25.1
	C60.4,25.1,60.4,25.1,60.4,25.1z M43.4,17.9v3.5H48c-0.6,2.5-2.9,4.3-5.5,4.2c-3.3,0-6-2.7-6-6c0-3.3,2.7-6,6-6c1.7,0,3.4,0.7,4.5,2
	l2.7-2.2c-3.4-4-9.3-4.5-13.3-1.1s-4.5,9.3-1.1,13.3c1.8,2.1,4.4,3.3,7.2,3.3c2.5,0,4.8-0.9,6.6-2.7c1.5-1.5,2.4-3.5,2.6-5.5
	c0.1-1,0.1-2,0-3L43.4,17.9z M113.4,13.1c-4.2,0-7.6,3.4-7.6,7.6s3.4,7.6,7.6,7.6c4.2,0,7.6-3.4,7.6-7.6v0
	C121,16.5,117.6,13.1,113.4,13.1C113.4,13,113.4,13,113.4,13.1L113.4,13.1z M113.4,25.2c-2.5,0-4.5-2-4.5-4.5c0-2.5,2-4.5,4.5-4.5
	c2.5,0,4.5,2,4.5,4.5c0,0,0,0,0,0C117.9,23.1,115.9,25.1,113.4,25.2L113.4,25.2z M100.7,27.9h3.4V15h-3.4V27.9z M95.6,27.9H99v-3.4
	h-3.4V27.9z M87.1,13.1c-4.2,0-7.6,3.4-7.6,7.6c0,4.2,3.4,7.6,7.6,7.6c2.8,0,5.4-1.5,6.7-4L91,22.9c-1.3,2.1-4,2.9-6.2,1.6
	c-1-0.6-1.8-1.6-2.1-2.7h8.7l0,0h3.2c0.6-4.2-2.2-8-6.4-8.7C87.9,13.1,87.5,13,87.1,13.1L87.1,13.1z M82.9,19.1
	c0.9-2.3,3.5-3.5,5.8-2.6c1.2,0.5,2.2,1.4,2.6,2.6H82.9z M100.7,13.5h3.4v-3.4h-3.4V13.5z"/>
<path class="st1" d="M16.5,26.4c-4.1,0-7.4-3.3-7.4-7.4s3.3-7.4,7.4-7.4V5.5C9.1,5.5,3,11.5,3,19s6,13.5,13.5,13.5S30,26.4,30,19
	l0,0H24C24,23.1,20.6,26.4,16.5,26.4z"/>
<rect x="16.5" y="11.5" class="st2" width="7.4" height="7.4"/>
</svg>
